<svg xmlns="http://www.w3.org/2000/svg" width="20" viewBox="0 0 24 24" fill="white">
  <path d="M12 2.2c3.2 0 3.6 0 4.9.1 1.2.1 2 .3 2.5.5.6.2 1 .5 1.4.9.4.4.7.8.9 1.4.2.5.4 1.3.5 2.5.1 1.3.1 1.7.1 4.9s0 3.6-.1 4.9c-.1 1.2-.3 2-.5 2.5-.2.6-.5 1-.9 1.4-.4.4-.8.7-1.4.9-.5.2-1.3.4-2.5.5-1.3.1-1.7.1-4.9.1s-3.6 0-4.9-.1c-1.2-.1-2-.3-2.5-.5-.6-.2-1-.5-1.4-.9-.4-.4-.7-.8-.9-1.4-.2-.5-.4-1.3-.5-2.5C2.2 15.6 2.2 15.2 2.2 12s0-3.6.1-4.9c.1-1.2.3-2 .5-2.5.2-.6.5-1 .9-1.4.4-.4.8-.7 1.4-.9.5-.2 1.3-.4 2.5-.5C8.4 2.2 8.8 2.2 12 2.2zm0-2.2C8.7 0 8.2 0 7 .1c-1.3.1-2.3.3-3.1.6-.9.3-1.6.7-2.3 1.4C.9 2.9.5 3.6.2 4.5c-.3.8-.5 1.8-.6 3.1C-.1 8.2-.1 8.7 0 12c.1 3.3.1 3.8.1 5 .1 1.3.3 2.3.6 3.1.3.9.7 1.6 1.4 2.3.7.7 1.4 1.1 2.3 1.4.8.3 1.8.5 3.1.6 1.2.1 1.7.1 5 .1s3.8 0 5-.1c1.3-.1 2.3-.3 3.1-.6.9-.3 1.6-.7 2.3-1.4.7-.7 1.1-1.4 1.4-2.3.3-.8.5-1.8.6-3.1.1-1.2.1-1.7.1-5s0-3.8-.1-5c-.1-1.3-.3-2.3-.6-3.1-.3-.9-.7-1.6-1.4-2.3-.7-.7-1.4-1.1-2.3-1.4-.8-.3-1.8-.5-3.1-.6C15.8 0 15.3 0 12 0zM12 5.8a6.2 6.2 0 1 0 0 12.4A6.2 6.2 0 0 0 12 5.8zm0 10.2a4 4 0 1 1 0-8 4 4 0 0 1 0 8zm6.4-10.5a1.5 1.5 0 1 0 0 3 1.5 1.5 0 0 0 0-3z"/>
</svg>
